# xmcd
#
# Track frame offsets: 
#        150
#        26533
#        53815
#        78938
#        98610
#        121615
#        144963
#        171613
#        193945
#        217203
#
# Disc length: 3220 seconds
#
# Revision: 4
# Processed by: cddbd v1.5.2PL0 Copyright (c) Steve Scherf et al.
# Submitted via: ExactAudioCopy v0.95b4
#
DISCID=870c920a
DTITLE=Various Artist - Lightdance
DYEAR=1989
DGENRE=New Age
TTITLE0=Karunesh - Japanese Spring
TTITLE1=Karunesh - Lightdance
TTITLE2=Kamal - Sundance
TTITLE3=Kamal - On My Wings
TTITLE4=Anugama - Silktree
TTITLE5=Prabodhi - Harlekin
TTITLE6=Kamal - Oregon Hills
TTITLE7=Karunesh - Commune
TTITLE8=Karunesh - Dawnlight
TTITLE9=Karunesh - Shabono
EXTD=YEAR: 1989
EXTT0=
EXTT1=
EXTT2=
EXTT3=
EXTT4=
EXTT5=
EXTT6=
EXTT7=
EXTT8=
EXTT9=
PLAYORDER=
